<?xml version="1.0" encoding="UTF-8" standalone="no"?>
<!DOCTYPE svg PUBLIC "-//W3C//DTD SVG 1.1//EN" "http://www.w3.org/Graphics/SVG/1.1/DTD/svg11.dtd">
<svg width="100%" height="100%" viewBox="0 0 512 512" version="1.1" xmlns="http://www.w3.org/2000/svg" xmlns:xlink="http://www.w3.org/1999/xlink" xml:space="preserve" xmlns:serif="http://www.serif.com/" style="fill-rule:evenodd;clip-rule:evenodd;stroke-linejoin:round;stroke-miterlimit:1.41421;"><path d="M247.173,512l-211.863,0c-19.42,0 -35.31,-15.89 -35.31,-35.31l0,-441.38c0,-19.42 15.89,-35.31 35.31,-35.31l441.38,0c19.42,0 35.31,15.89 35.31,35.31l0,441.38c0,19.42 -15.89,35.31 -35.31,35.31l-141.241,0l0,-176.551l88.276,0l0,-88.276l-88.276,0l0,-52.966c0,-9.71 7.944,-17.654 17.655,-17.655l79.448,0l0,-88.277l-88.276,0c-54.731,4.414 -97.103,50.317 -97.103,105.931l0,52.966l-70.621,0l0,88.276l70.621,0l0,176.552Z" style="fill:#4d6fa9;fill-rule:nonzero;"/></svg>