<?xml version="1.0" encoding="UTF-8" standalone="no"?>
<!DOCTYPE svg PUBLIC "-//W3C//DTD SVG 1.1//EN" "http://www.w3.org/Graphics/SVG/1.1/DTD/svg11.dtd">
<svg width="100%" height="100%" viewBox="0 0 1212 632" version="1.1" xmlns="http://www.w3.org/2000/svg" xmlns:xlink="http://www.w3.org/1999/xlink" xml:space="preserve" xmlns:serif="http://www.serif.com/" style="fill-rule:evenodd;clip-rule:evenodd;stroke-linejoin:round;stroke-miterlimit:1.41421;"><g id="Logo"><clipPath id="_clip1"><rect x="-0.03" y="0" width="1211.43" height="636.387" clip-rule="nonzero"/></clipPath><g clip-path="url(#_clip1)"><clipPath id="_clip2"><path d="M-0.03,0l0,635.656l1215.76,0c369.764,-345.34 267.244,-1308.51 -1215.76,-635.656Z"/></clipPath><g clip-path="url(#_clip2)"><path d="M603.467,631.542c-225.733,-1.029 -430.846,-65.827 -534.953,-169.713c-45.868,-45.255 -68.544,-94.629 -68.544,-146.572c0,-176.401 272.117,-319.369 606.594,-319.369c334.965,0 607.103,142.968 607.103,319.369c0,83.315 -60.307,146.058 -111.342,184.111c-140.19,14.918 -343.228,44.748 -498.858,132.174Z" style="fill:#fefefe;"/></g><clipPath id="_clip3"><path d="M-0.03,0l0,635.656l1215.76,0c499.353,-347.193 808.357,-1197.69 -1215.76,-635.656Z"/></clipPath><g clip-path="url(#_clip3)"><path d="M1129.66,436.111c34,-37.025 52.545,-77.655 52.545,-120.854c0,-159.427 -257.644,-288.518 -575.644,-288.518c-317.47,0 -575.157,129.091 -575.157,288.518c0,82.287 69.574,156.858 180.38,209.315c379.831,-113.144 793.14,-97.198 917.876,-88.461Z" style="fill:#ce1130;fill-rule:nonzero;"/></g><clipPath id="_clip4"><path d="M-0.03,0l0,635.656l1215.76,0c0,0 0,-635.656 -1215.76,-635.656Z"/></clipPath><g clip-path="url(#_clip4)"><path d="M257.141,544.116c40.195,15.425 89.155,29.826 137.6,39.083c107.199,-50.397 349.451,-126.516 717.407,-129.6c0,0 8.242,-7.716 9.272,-8.744c-183.462,-5.14 -546.294,-4.626 -864.279,99.261Zm332.41,59.14c146.399,-87.942 377.255,-120.855 499.38,-130.627c0,0 6.732,-5.147 10.853,-8.744c-98.978,0 -389.661,19.544 -641.652,130.628c41.748,5.143 86.587,8.229 131.419,8.743Z" style="fill:#008352;"/></g><clipPath id="_clip5"><path d="M-0.03,0l0,635.656l1215.76,0c387.582,-278.408 528.65,-1015.4 -1215.76,-635.656Z"/></clipPath><g clip-path="url(#_clip5)"><path d="M1019.9,243.77c11.814,0 17.996,-10.8 19.026,-21.086c1.031,-10.285 -2.541,-20.571 -13.394,-20.571c-11.814,0 -19.575,10.286 -20.056,20.571c-1.03,10.286 3.572,21.086 14.424,21.086Z" style="fill:#fefefe;fill-rule:nonzero;"/></g><clipPath id="_clip6"><path d="M-0.03,0l0,635.656l1215.76,0c316.246,-359.336 323.469,-1003.2 -1215.76,-635.656Z"/></clipPath><g clip-path="url(#_clip6)"><path d="M753.946,357.942c-0.481,0 -0.481,0.514 -0.481,0.514l-0.55,0c-1.511,2.056 -3.091,3.084 -4.602,3.084c-6.731,0 -13.943,-5.653 -13.943,-18.509c0,-2.063 0,-5.66 0.549,-9.258c2.061,-21.6 9.754,-58.631 31.94,-58.631l20.056,0c-7.212,29.829 -22.117,70.459 -32.969,82.8Zm-113.368,-9.258c-2.583,6.175 -5.158,11.314 -8.249,15.947c-10.31,13.883 -18.553,13.883 -18.553,13.883c-2.575,0 -17.006,0 -17.522,0c4.637,-39.087 14.947,-64.799 24.735,-79.203l0,-0.514c19.074,-24.169 27.316,2.063 26.801,8.23c0,2.056 0.515,20.572 -7.212,41.657Zm-244.807,13.37c-6.697,0 -14.424,-6.681 -14.424,-19.023c-0.515,-17.488 8.758,-64.806 32.983,-66.348l20.098,-1.541c-8.249,37.031 -27.832,86.912 -38.657,86.912Zm637.524,4.632c-9.273,1.542 -10.853,-9.258 -10.303,-15.946c0,0 0.481,-2.056 0.481,-2.569l13.943,-82.801c0.481,-2.056 0,-4.112 -1.58,-6.168c-2.541,-3.09 -5.632,-2.576 -8.242,-1.548c-0.481,0 -15.455,4.632 -26.788,8.23c0,0 -16.485,95.142 -16.485,95.656l0,0.514c0,0 -1.511,1.542 -17.034,4.632c-11.814,2.57 -14.905,-5.146 -13.875,-12.341c0,-0.514 12.845,-80.231 12.845,-80.231c1.579,-11.314 -1.511,-18.002 -9.273,-18.002c-20.057,0 -44.303,6.688 -64.36,47.317l-1.03,2.57l6.182,-40.629c0,-1.028 1.03,-3.598 -1.58,-6.168c-2.061,-2.062 -4.121,-2.576 -7.762,-1.548c-0.48,0 -14.424,4.118 -27.268,7.202l-15.455,89.489l-1.03,7.195c0,0 -1.58,1.028 -20.125,5.146c-12.364,2.57 -14.425,-5.66 -13.875,-13.89c0,-0.514 0,-3.084 0.481,-3.598l12.913,-79.71l0,-0.521c0,-4.625 -3.641,-8.737 -7.762,-9.251l-26.307,0c-11.333,0 -21.087,1.542 -29.879,4.112c-43.272,12.855 -61.818,50.915 -63.398,82.801l-26.265,6.688c4.128,-6.174 7.734,-13.377 10.31,-21.086c0,0 6.202,-14.918 6.202,-38.06c0,-15.432 -6.202,-38.573 -20.118,-38.573c-26.28,0 -48.445,29.316 -53.597,37.032l16.492,-94.115l4.121,-21.086c0,-1.028 0.515,-3.604 -2.06,-6.174c-2.061,-2.056 -5.152,-2.57 -7.213,-1.542c-0.515,0 -18.037,6.175 -31.438,10.8l-33.498,181.541c-1.03,0.514 -3.613,1.542 -17.522,4.632c-19.59,4.112 -12.371,-20.057 -11.34,-25.718l29.377,-159.427c0.515,-2.57 -1.03,-5.14 -3.098,-6.681c-2.575,-1.549 -4.636,-1.549 -7.212,-1.035c-0.515,0 -16.492,4.632 -29.377,8.23l-32.468,177.429l-19.583,7.202c-9.28,2.056 -11.34,-10.285 -10.31,-15.432c0.515,-0.514 14.431,-80.224 14.431,-80.224c0,-0.514 0,-1.542 0,-2.063c0,-4.625 -3.606,-8.223 -7.727,-8.737l-26.287,0c-44.838,0 -72.663,23.656 -85.549,50.916l0,0.513c-6.189,12.856 -9.28,26.74 -9.28,39.081c0,7.202 1.031,13.891 2.061,19.544l-30.401,8.23l11.849,-70.973c0.515,-1.028 0.515,-1.028 0.515,-1.542c0,-5.66 -5.152,-11.314 -9.788,-11.314l-52.573,0l-2.061,11.828c6.704,0.514 17.522,1.542 17.522,15.432c0,7.196 -3.091,75.599 -40.195,71.995c-14.946,-1.542 -37.62,-21.6 -37.62,-59.139c0,-78.175 40.711,-145.544 79.361,-145.544c25.256,0 34.02,28.288 39.687,51.429l7.727,0l6.704,-41.143c1.031,-5.146 -1.03,-9.772 -8.249,-12.342c-11.333,-5.146 -22.158,-9.258 -44.832,-10.8c-80.398,-6.174 -135.031,81.253 -136.577,153.254c-0.515,31.885 10.31,63.257 36.074,76.633c27.832,14.397 62.361,12.342 109.261,-6.688c19.067,-7.202 43.293,-16.46 56.179,-21.6c2.575,6.682 6.181,11.314 10.303,14.398c3.091,2.055 6.703,3.09 10.309,3.09c13.401,0 36.59,-12.348 52.567,-48.345l1.03,-2.056l-3.091,18.509c-2.061,8.23 -1.03,18.516 1.545,23.148c2.576,4.626 6.697,7.709 13.401,8.744l52.051,-22.12c0,5.146 1.03,10.8 2.576,13.376c3.091,4.626 8.249,7.709 14.946,8.744l1.03,0l53.088,-22.634l-1.552,8.744c-1.03,3.604 1.552,10.8 8.249,10.8l33.499,0c21.643,0 41.233,-7.716 56.179,-20.572c16.492,-6.167 33.512,-12.856 42.235,-16.453c1.031,24.169 10.853,39.594 24.728,39.594c13.462,0 35.58,-12.855 52.064,-48.852l1.031,-1.542l-3.091,18.509c-1.511,8.23 -1.031,19.03 2.06,23.148c2.61,5.14 6.182,7.71 13.394,8.737l56.186,-25.197l-3.572,22.114l36.542,0l4.671,-24.17c9.822,-52.971 32.969,-74.056 40.731,-74.056c3.572,0 5.151,3.597 4.121,9.257c-3.091,17.482 -10.852,59.139 -10.852,60.167c-2.061,8.23 -1.031,19.03 1.579,23.148c2.542,5.14 6.663,7.71 13.394,9.258l2.061,-1.035l51.515,-24.169c-0.481,6.174 0.549,12.856 2.061,15.946c3.091,5.14 6.731,7.71 13.943,8.737l61.818,-25.711l0.55,-7.716l-28.368,5.146Z" style="fill:#fefefe;fill-rule:nonzero;"/></g><clipPath id="_clip7"><path d="M-0.03,0l0,635.656l1215.76,0c0,0 0,-635.656 -1215.76,-635.656Z"/></clipPath><g clip-path="url(#_clip7)"><path d="M372.067,116.228l-2.06,-7.202l22.673,-5.14l1.546,7.196l-22.159,5.146Z" style="fill:#fefefe;fill-rule:nonzero;"/></g><clipPath id="_clip8"><path d="M-0.03,0l0,635.656l1215.76,0c0,0 0,-635.656 -1215.76,-635.656Z"/></clipPath><g clip-path="url(#_clip8)"><path d="M440.095,87.94c-1.03,-7.195 -6.697,-9.258 -10.818,-8.744l-5.674,1.035l7.734,43.713l5.152,-0.514c4.121,-1.028 8.764,-4.632 7.727,-11.827l-4.121,-23.663Zm-37.62,-8.223l29.377,-4.632c15.977,-3.084 25.765,9.258 27.825,21.599c2.068,12.856 -3.09,27.26 -19.067,29.83l-29.377,5.14l-1.031,-4.112l5.159,-0.514l-7.219,-44.227l-5.152,1.028l-0.515,-4.112Z" style="fill:#fefefe;fill-rule:nonzero;"/></g><clipPath id="_clip9"><path d="M-0.03,0l0,635.656l1215.76,0c0,0 0,-635.656 -1215.76,-635.656Z"/></clipPath><g clip-path="url(#_clip9)"><path d="M492.146,77.654l-6.182,23.149l17.007,-1.549l-10.825,-21.6Zm12.885,25.205l-20.097,2.055l-3.606,11.828l4.636,-0.514l0.515,3.598l-13.401,1.542l-0.515,-4.112l3.606,0l13.401,-50.401l13.916,-1.028l23.195,46.29l3.607,-0.514l0.515,4.111l-25.256,2.056l0,-3.598l4.643,-0.514l-5.159,-10.799Z" style="fill:#fefefe;fill-rule:nonzero;"/></g><clipPath id="_clip10"><path d="M-0.03,0l0,635.656l1215.76,0c78.737,-69.631 149.008,-767.429 -1215.76,-635.656Z"/></clipPath><g clip-path="url(#_clip10)"><path d="M565.847,61.715l0,3.598l-5.152,0.514l2.061,44.227l13.916,-0.514l5.666,-5.654l0,-6.688l5.152,0l0.515,15.946l-46.377,1.542l0,-3.604l5.151,-0.514l-2.06,-44.227l-4.644,0l-0.515,-3.598l26.287,-1.028Z" style="fill:#fefefe;fill-rule:nonzero;"/></g><clipPath id="_clip11"><path d="M-0.03,0l0,635.656l1215.76,0c141.27,-97.238 277.393,-826.589 -1215.76,-635.656Z"/></clipPath><g clip-path="url(#_clip11)"><path d="M636.45,72.515c5.673,-1.028 11.855,-6.174 14.431,-10.8l9.795,0.514l-2.061,48.339l8.758,0l0,4.118l-32.984,-1.542l0.515,-3.604l8.765,0.514l1.545,-36.511c-2.06,1.028 -6.697,2.056 -9.279,2.57l0.515,-3.598Z" style="fill:#fefefe;fill-rule:nonzero;"/></g><clipPath id="_clip12"><path d="M-0.03,0l0,635.656l1215.76,0c241.551,-162.295 464.843,-947.979 -1215.76,-635.656Z"/></clipPath><g clip-path="url(#_clip12)"><path d="M710.123,76.627c0.55,-4.626 -2.541,-8.744 -7.692,-8.744c-4.122,-0.514 -8.243,2.062 -8.243,6.174c-0.549,5.66 6.182,9.258 10.303,11.314c3.572,-1.542 5.152,-4.626 5.632,-8.744Zm-16.484,16.46c-2.061,0.514 -5.633,4.625 -6.182,9.258c0,5.139 2.61,10.799 8.242,11.313c5.152,0.514 8.792,-2.576 8.792,-7.202c1.03,-7.202 -8.242,-11.827 -10.852,-13.369Zm7.761,-28.802c8.723,0.514 16.966,6.174 16.485,13.883c-0.549,4.633 -6.182,7.717 -10.303,9.258c4.121,2.056 9.754,8.744 9.273,15.433c-0.55,9.258 -9.273,15.939 -20.606,14.911c-9.809,-1.028 -17.021,-7.716 -16.506,-14.397c0.515,-6.689 6.697,-11.314 10.805,-11.828c-2.061,-1.549 -8.744,-7.716 -8.229,-13.377c0.515,-8.737 9.259,-14.911 19.081,-13.883Z" style="fill:#fefefe;fill-rule:nonzero;"/></g><clipPath id="_clip13"><path d="M-0.03,0l0,635.656l1215.76,0c402.108,-272.642 638.977,-1068.9 -1215.76,-635.656Z"/></clipPath><g clip-path="url(#_clip13)"><path d="M763.768,83.315c1.03,-4.633 -2.061,-8.744 -7.212,-9.258c-4.121,-1.028 -8.243,1.542 -8.792,5.66c-0.481,5.654 6.182,9.251 10.303,11.828c3.091,-1.028 5.151,-4.633 5.701,-8.23Zm-17.034,15.425c-2.061,0.514 -6.182,4.119 -6.663,9.258c-0.55,5.146 1.511,10.8 7.693,11.828c4.671,0.514 8.242,-2.57 9.273,-7.195c0.549,-7.203 -7.693,-12.349 -10.303,-13.891Zm9.272,-28.281c8.792,1.028 16.485,7.195 15.455,14.398c-1.031,5.139 -6.182,7.716 -10.303,9.258c3.64,2.055 9.272,9.258 8.242,15.939c-1.511,9.258 -10.303,14.918 -21.636,13.376c-9.273,-1.028 -16.485,-8.23 -15.455,-14.918c0.55,-7.195 7.212,-10.8 11.334,-11.314c-2.061,-1.542 -8.724,-8.23 -7.693,-13.883c1.03,-8.744 10.303,-14.405 20.056,-12.856Z" style="fill:#fefefe;fill-rule:nonzero;"/></g><clipPath id="_clip14"><path d="M-0.03,0l0,635.656l1215.76,0c295.611,-194.508 532.236,-985.859 -1215.76,-635.656Z"/></clipPath><g clip-path="url(#_clip14)"><path d="M795.707,112.631c6.663,-3.605 11.334,-10.286 13.394,-18.516c0.55,-5.147 0,-11.314 -5.701,-12.342c-4.121,-1.028 -8.723,3.084 -9.273,4.625c1.031,0 2.061,0 3.641,0.514c4.121,0.514 6.662,4.119 6.182,7.717c-0.55,3.597 -4.671,6.174 -8.792,5.139c-5.152,-1.028 -8.243,-5.139 -7.212,-9.772c1.579,-8.223 9.272,-13.369 20.125,-11.314c10.303,2.063 17.515,9.772 15.454,18.516c-1.03,7.716 -8.242,11.314 -16.004,14.405c-5.151,2.055 -9.272,4.111 -12.844,7.195l19.576,3.604l1.03,-7.202l4.671,1.028l-3.641,18.516l-35.03,-7.202c1.03,-5.14 7.212,-11.314 14.424,-14.911Z" style="fill:#fefefe;fill-rule:nonzero;"/></g><clipPath id="_clip15"><path d="M-0.03,0l0,635.656l1215.76,0c291.908,-198.854 508.248,-981.886 -1215.76,-635.656Z"/></clipPath><g clip-path="url(#_clip15)"><path d="M836.439,114.686l1.511,-7.202l22.666,5.66l-2.06,7.196l-22.117,-5.654Z" style="fill:#fefefe;fill-rule:nonzero;"/></g></g></g></svg>