<?xml version="1.0" encoding="UTF-8" standalone="no"?>
<!DOCTYPE svg PUBLIC "-//W3C//DTD SVG 1.1//EN" "http://www.w3.org/Graphics/SVG/1.1/DTD/svg11.dtd">
<svg width="100%" height="100%" viewBox="0 0 101 101" version="1.1" xmlns="http://www.w3.org/2000/svg" xmlns:xlink="http://www.w3.org/1999/xlink" xml:space="preserve" xmlns:serif="http://www.serif.com/" style="fill-rule:evenodd;clip-rule:evenodd;stroke-linejoin:round;stroke-miterlimit:1.41421;"><path d="M43.081,66.14c-2.626,13.767 -5.833,26.966 -15.333,33.861c-2.932,-20.809 4.307,-36.436 7.668,-53.027c-5.73,-9.646 0.689,-29.062 12.777,-24.277c14.873,5.885 -12.881,35.865 5.75,39.611c19.453,3.908 27.395,-33.752 15.332,-46c-17.428,-17.684 -50.733,-0.403 -46.637,24.916c0.996,6.191 7.391,8.068 2.555,16.611c-11.154,-2.473 -14.484,-11.27 -14.055,-23c0.69,-19.197 17.25,-32.639 33.86,-34.498c21.006,-2.352 40.721,7.711 43.443,27.471c3.066,22.303 -9.48,46.459 -31.943,44.721c-6.088,-0.473 -8.645,-3.489 -13.417,-6.389Z" style="fill:#030104;fill-rule:nonzero;"/></svg>