<?xml version="1.0" encoding="UTF-8" standalone="no"?>
<!DOCTYPE svg PUBLIC "-//W3C//DTD SVG 1.1//EN" "http://www.w3.org/Graphics/SVG/1.1/DTD/svg11.dtd">
<svg width="100%" height="100%" viewBox="0 0 612 612" version="1.1" xmlns="http://www.w3.org/2000/svg" xmlns:xlink="http://www.w3.org/1999/xlink" xml:space="preserve" xmlns:serif="http://www.serif.com/" style="fill-rule:evenodd;clip-rule:evenodd;stroke-linecap:round;stroke-linejoin:round;stroke-miterlimit:1.5;"><path d="M278.08,375.997l138.22,-68.062l-193.752,-96.836l0.704,202.837" style="fill:none;stroke:#f4c839;stroke-width:29.17px;"/><path d="M306,18.501c-158.782,0 -287.5,128.718 -287.5,287.5c0,158.675 128.824,287.499 287.5,287.499c158.676,0 287.5,-128.824 287.5,-287.499c0,-108.864 -61.488,-208.39 -158.843,-257.107c97.355,48.717 158.843,148.243 158.843,257.107c0,158.675 -128.824,287.499 -287.5,287.499c-158.676,0 -287.5,-128.824 -287.5,-287.499c0,-158.782 128.718,-287.5 287.5,-287.5Z" style="fill:none;stroke:#f4c839;stroke-width:29.17px;"/></svg>